<svg width="46" height="46" viewBox="0 0 46 46" fill="none" xmlns="http://www.w3.org/2000/svg">
<path fill-rule="evenodd" clip-rule="evenodd" d="M3.83331 16.25C4.3856 16.25 4.83331 16.6977 4.83331 17.25C4.83331 22.0681 6.7473 26.6889 10.1542 30.0958C13.5611 33.5027 18.1819 35.4167 23 35.4167C27.8181 35.4167 32.4388 33.5027 35.8458 30.0958C39.2527 26.6889 41.1666 22.0681 41.1666 17.25C41.1666 16.6977 41.6144 16.25 42.1666 16.25C42.7189 16.25 43.1666 16.6977 43.1666 17.25C43.1666 22.5985 41.042 27.728 37.26 31.51C33.478 35.292 28.3485 37.4167 23 37.4167C17.6514 37.4167 12.522 35.292 8.73999 31.51C4.95801 27.728 2.83331 22.5985 2.83331 17.25C2.83331 16.6977 3.28103 16.25 3.83331 16.25Z" fill="url(#paint0_linear_9_30)"/>
<path fill-rule="evenodd" clip-rule="evenodd" d="M2.83331 17.25C2.83331 16.6977 3.28103 16.25 3.83331 16.25C6.48164 16.25 9.10403 16.7716 11.5508 17.7851C13.9975 18.7986 16.2207 20.284 18.0933 22.1567C19.9659 24.0293 21.4514 26.2525 22.4649 28.6992C22.6619 29.1749 22.8403 29.6572 23 30.145C23.9764 27.1613 25.6452 24.4181 27.9067 22.1567C31.6886 18.3747 36.8181 16.25 42.1666 16.25C42.7189 16.25 43.1666 16.6977 43.1666 17.25C43.1666 17.8023 42.7189 18.25 42.1666 18.25C37.3485 18.25 32.7278 20.164 29.3209 23.5709C25.914 26.9778 24 31.5986 24 36.4167C24 36.969 23.5523 37.4167 23 37.4167C22.4477 37.4167 22 36.969 22 36.4167C22 34.031 21.5301 31.6687 20.6171 29.4646C19.7042 27.2605 18.366 25.2578 16.6791 23.5709C14.9922 21.884 12.9895 20.5458 10.7854 19.6329C8.58131 18.7199 6.21899 18.25 3.83331 18.25C3.28103 18.25 2.83331 17.8023 2.83331 17.25Z" fill="url(#paint1_linear_9_30)"/>
<path fill-rule="evenodd" clip-rule="evenodd" d="M23.6946 6.94737C23.6155 6.87087 23.5267 6.80993 23.4322 6.76466C23.2958 6.69927 23.1478 6.66673 23 6.66675C22.749 6.66678 22.4983 6.76077 22.3054 6.94737C20.2719 8.88973 18.6803 11.2471 17.6389 13.8593C16.5968 16.4733 16.1301 19.2811 16.2704 22.0916C16.298 22.6432 16.7674 23.068 17.319 23.0405C17.8706 23.013 18.2955 22.5435 18.2679 21.9919C18.1419 19.4683 18.561 16.9471 19.4967 14.6C20.3112 12.5571 21.5003 10.6878 23 9.08708C24.4997 10.6878 25.6888 12.5571 26.5033 14.6C27.439 16.9471 27.8581 19.4683 27.7321 21.9919C27.7045 22.5435 28.1294 23.013 28.681 23.0405C29.2326 23.068 29.702 22.6432 29.7296 22.0916C29.8699 19.2811 29.4032 16.4733 28.3611 13.8593C27.3197 11.2471 25.7281 8.88973 23.6946 6.94737Z" fill="url(#paint2_linear_9_30)"/>
<defs>
<linearGradient id="paint0_linear_9_30" x1="2.83331" y1="26.8333" x2="43.1666" y2="26.8333" gradientUnits="userSpaceOnUse">
<stop stop-color="#2AF598"/>
<stop offset="1" stop-color="#009EFD"/>
</linearGradient>
<linearGradient id="paint1_linear_9_30" x1="2.83331" y1="26.8333" x2="43.1666" y2="26.8333" gradientUnits="userSpaceOnUse">
<stop stop-color="#2AF598"/>
<stop offset="1" stop-color="#009EFD"/>
</linearGradient>
<linearGradient id="paint2_linear_9_30" x1="16.246" y1="14.8543" x2="29.754" y2="14.8543" gradientUnits="userSpaceOnUse">
<stop stop-color="#2AF598"/>
<stop offset="1" stop-color="#009EFD"/>
</linearGradient>
</defs>
</svg>
