<svg width="39" height="38" viewBox="0 0 39 38" fill="none" xmlns="http://www.w3.org/2000/svg">
<g clip-path="url(#clip0_8_24)">
<path d="M8 8.71436C8 4.29578 11.5786 0.714355 16 0.714355C20.4214 0.714355 24 4.29578 24 8.71436V12.1429H28.5714C30.4643 12.1429 32 13.6786 32 15.5715V30.4286C32 34.2144 28.9286 37.2858 25.1429 37.2858H6.85714C3.07 37.2858 0 34.2144 0 30.4286V15.5715C0 13.6786 1.535 12.1429 3.42857 12.1429H8V8.71436ZM11.4286 12.1429H20.5714V8.71436C20.5714 6.18936 18.5214 4.14293 16 4.14293C13.4786 4.14293 11.4286 6.18936 11.4286 8.71436V12.1429ZM9.71429 19.0001C10.6643 19.0001 11.4286 18.2358 11.4286 17.2858C11.4286 16.3358 10.6643 15.5715 9.71429 15.5715C8.76429 15.5715 8 16.3358 8 17.2858C8 18.2358 8.76429 19.0001 9.71429 19.0001ZM22.2857 15.5715C21.3357 15.5715 20.5714 16.3358 20.5714 17.2858C20.5714 18.2358 21.3357 19.0001 22.2857 19.0001C23.2357 19.0001 24 18.2358 24 17.2858C24 16.3358 23.2357 15.5715 22.2857 15.5715Z" fill="white"/>
</g>
<circle cx="28.5" cy="14.2144" r="10.5" fill="url(#paint0_linear_8_24)"/>
<path d="M28.1594 18.7144V13.3944C28.1594 13.1517 28.1594 12.9044 28.1594 12.6524C28.1687 12.391 28.1734 12.125 28.1734 11.8544C27.8654 12.1344 27.5247 12.3817 27.1514 12.5964C26.778 12.8017 26.386 12.9417 25.9754 13.0164L25.7514 11.0284C25.994 11.0097 26.2507 10.949 26.5214 10.8464C26.8014 10.7437 27.0767 10.6177 27.3474 10.4684C27.618 10.319 27.8607 10.1604 28.0754 9.99236C28.29 9.81502 28.4534 9.64236 28.5654 9.47436H30.4834V18.7144H28.1594Z" fill="#2D3949"/>
<defs>
<linearGradient id="paint0_linear_8_24" x1="18" y1="14.2144" x2="39" y2="14.2144" gradientUnits="userSpaceOnUse">
<stop stop-color="#2AF598"/>
<stop offset="1" stop-color="#009EFD"/>
</linearGradient>
<clipPath id="clip0_8_24">
<rect width="32" height="36.5714" fill="white" transform="translate(0 0.714355)"/>
</clipPath>
</defs>
</svg>
