<svg width="175" height="46" viewBox="0 0 175 46" fill="none" xmlns="http://www.w3.org/2000/svg">
<path fill-rule="evenodd" clip-rule="evenodd" d="M3.83331 16.25C4.3856 16.25 4.83331 16.6977 4.83331 17.25C4.83331 22.0681 6.7473 26.6889 10.1542 30.0958C13.5611 33.5027 18.1819 35.4167 23 35.4167C27.8181 35.4167 32.4388 33.5027 35.8458 30.0958C39.2527 26.6889 41.1666 22.0681 41.1666 17.25C41.1666 16.6977 41.6144 16.25 42.1666 16.25C42.7189 16.25 43.1666 16.6977 43.1666 17.25C43.1666 22.5985 41.042 27.728 37.26 31.51C33.478 35.292 28.3485 37.4167 23 37.4167C17.6514 37.4167 12.522 35.292 8.73999 31.51C4.95801 27.728 2.83331 22.5985 2.83331 17.25C2.83331 16.6977 3.28103 16.25 3.83331 16.25Z" fill="url(#paint0_linear_5_9)"/>
<path fill-rule="evenodd" clip-rule="evenodd" d="M2.83331 17.25C2.83331 16.6977 3.28103 16.25 3.83331 16.25C6.48164 16.25 9.10403 16.7716 11.5508 17.7851C13.9975 18.7986 16.2207 20.284 18.0933 22.1567C19.9659 24.0293 21.4514 26.2525 22.4649 28.6992C22.6619 29.1749 22.8403 29.6572 23 30.145C23.9764 27.1613 25.6452 24.4181 27.9067 22.1567C31.6886 18.3747 36.8181 16.25 42.1666 16.25C42.7189 16.25 43.1666 16.6977 43.1666 17.25C43.1666 17.8023 42.7189 18.25 42.1666 18.25C37.3485 18.25 32.7278 20.164 29.3209 23.5709C25.914 26.9778 24 31.5986 24 36.4167C24 36.969 23.5523 37.4167 23 37.4167C22.4477 37.4167 22 36.969 22 36.4167C22 34.031 21.5301 31.6687 20.6171 29.4646C19.7042 27.2605 18.366 25.2578 16.6791 23.5709C14.9922 21.884 12.9895 20.5458 10.7854 19.6329C8.58131 18.7199 6.21899 18.25 3.83331 18.25C3.28103 18.25 2.83331 17.8023 2.83331 17.25Z" fill="url(#paint1_linear_5_9)"/>
<path fill-rule="evenodd" clip-rule="evenodd" d="M23.6946 6.94737C23.6155 6.87087 23.5267 6.80993 23.4322 6.76466C23.2958 6.69927 23.1478 6.66673 23 6.66675C22.749 6.66678 22.4983 6.76077 22.3054 6.94737C20.2719 8.88973 18.6803 11.2471 17.6389 13.8593C16.5968 16.4733 16.1301 19.2811 16.2704 22.0916C16.298 22.6432 16.7674 23.068 17.319 23.0405C17.8706 23.013 18.2955 22.5435 18.2679 21.9919C18.1419 19.4683 18.561 16.9471 19.4967 14.6C20.3112 12.5571 21.5003 10.6878 23 9.08708C24.4997 10.6878 25.6888 12.5571 26.5033 14.6C27.439 16.9471 27.8581 19.4683 27.7321 21.9919C27.7045 22.5435 28.1294 23.013 28.681 23.0405C29.2326 23.068 29.702 22.6432 29.7296 22.0916C29.8699 19.2811 29.4032 16.4733 28.3611 13.8593C27.3197 11.2471 25.7281 8.88973 23.6946 6.94737Z" fill="url(#paint2_linear_5_9)"/>
<path d="M60.679 34.5H52.429V11.2273H60.7472C63.0881 11.2273 65.1032 11.6932 66.7926 12.625C68.482 13.5492 69.7813 14.8788 70.6903 16.6136C71.607 18.3485 72.0653 20.4242 72.0653 22.8409C72.0653 25.2652 71.607 27.3485 70.6903 29.0909C69.7813 30.8333 68.4744 32.1705 66.7699 33.1023C65.0729 34.0341 63.0426 34.5 60.679 34.5ZM57.3494 30.2841H60.4744C61.929 30.2841 63.1525 30.0265 64.1449 29.5114C65.1449 28.9886 65.8949 28.1818 66.3949 27.0909C66.9025 25.9924 67.1562 24.5758 67.1562 22.8409C67.1562 21.1212 66.9025 19.7159 66.3949 18.625C65.8949 17.5341 65.1487 16.7311 64.1562 16.2159C63.1638 15.7008 61.9403 15.4432 60.4858 15.4432H57.3494V30.2841ZM80.5966 34.8295C79.483 34.8295 78.4905 34.6364 77.6193 34.25C76.7481 33.8561 76.0587 33.2765 75.5511 32.5114C75.0511 31.7386 74.8011 30.7765 74.8011 29.625C74.8011 28.6553 74.9792 27.8409 75.3352 27.1818C75.6913 26.5227 76.1761 25.9924 76.7898 25.5909C77.4034 25.1894 78.1004 24.8864 78.8807 24.6818C79.6686 24.4773 80.4943 24.3333 81.358 24.25C82.3731 24.1439 83.1913 24.0455 83.8125 23.9545C84.4337 23.8561 84.8845 23.7121 85.1648 23.5227C85.4451 23.3333 85.5852 23.053 85.5852 22.6818V22.6136C85.5852 21.8939 85.358 21.3371 84.9034 20.9432C84.4564 20.5492 83.8201 20.3523 82.9943 20.3523C82.1231 20.3523 81.4299 20.5455 80.9148 20.9318C80.3996 21.3106 80.0587 21.7879 79.892 22.3636L75.4148 22C75.642 20.9394 76.089 20.0227 76.7557 19.25C77.4223 18.4697 78.2822 17.8712 79.3352 17.4545C80.3958 17.0303 81.6231 16.8182 83.017 16.8182C83.9867 16.8182 84.9148 16.9318 85.8011 17.1591C86.6951 17.3864 87.4867 17.7386 88.1761 18.2159C88.8731 18.6932 89.4223 19.3068 89.8239 20.0568C90.2254 20.7992 90.4261 21.6894 90.4261 22.7273V34.5H85.8352V32.0795H85.6989C85.4186 32.625 85.0436 33.1061 84.5739 33.5227C84.1042 33.9318 83.5398 34.2538 82.8807 34.4886C82.2216 34.7159 81.4602 34.8295 80.5966 34.8295ZM81.983 31.4886C82.6951 31.4886 83.3239 31.3485 83.8693 31.0682C84.4148 30.7803 84.8428 30.3939 85.1534 29.9091C85.464 29.4242 85.6193 28.875 85.6193 28.2614V26.4091C85.4678 26.5076 85.2595 26.5985 84.9943 26.6818C84.7367 26.7576 84.4451 26.8295 84.1193 26.8977C83.7936 26.9583 83.4678 27.0152 83.142 27.0682C82.8163 27.1136 82.5208 27.1553 82.2557 27.1932C81.6875 27.2765 81.1913 27.4091 80.767 27.5909C80.3428 27.7727 80.0133 28.0189 79.7784 28.3295C79.5436 28.6326 79.4261 29.0114 79.4261 29.4659C79.4261 30.125 79.6648 30.6288 80.142 30.9773C80.6269 31.3182 81.2405 31.4886 81.983 31.4886ZM105.375 27.0682V17.0455H110.216V34.5H105.568V31.3295H105.386C104.992 32.3523 104.337 33.1742 103.42 33.7955C102.511 34.4167 101.402 34.7273 100.091 34.7273C98.9242 34.7273 97.8977 34.4621 97.0114 33.9318C96.125 33.4015 95.4318 32.6477 94.9318 31.6705C94.4394 30.6932 94.1894 29.5227 94.1818 28.1591V17.0455H99.0227V27.2955C99.0303 28.3258 99.3068 29.1402 99.8523 29.7386C100.398 30.3371 101.129 30.6364 102.045 30.6364C102.629 30.6364 103.174 30.5038 103.682 30.2386C104.189 29.9659 104.598 29.5644 104.909 29.0341C105.227 28.5038 105.383 27.8485 105.375 27.0682ZM118.929 24.4091V34.5H114.088V17.0455H118.702V20.125H118.906C119.293 19.1098 119.94 18.3068 120.849 17.7159C121.759 17.1174 122.861 16.8182 124.156 16.8182C125.368 16.8182 126.425 17.0833 127.327 17.6136C128.228 18.1439 128.929 18.9015 129.429 19.8864C129.929 20.8636 130.179 22.0303 130.179 23.3864V34.5H125.338V24.25C125.346 23.1818 125.073 22.3485 124.52 21.75C123.967 21.1439 123.205 20.8409 122.236 20.8409C121.584 20.8409 121.009 20.9811 120.509 21.2614C120.016 21.5417 119.63 21.9508 119.349 22.4886C119.077 23.0189 118.937 23.6591 118.929 24.4091ZM138.381 29.4773L138.392 23.6705H139.097L144.688 17.0455H150.244L142.733 25.8182H141.585L138.381 29.4773ZM133.994 34.5V11.2273H138.835V34.5H133.994ZM144.903 34.5L139.767 26.8977L142.994 23.4773L150.574 34.5H144.903ZM163.812 27.0682V17.0455H168.653V34.5H164.006V31.3295H163.824C163.43 32.3523 162.775 33.1742 161.858 33.7955C160.949 34.4167 159.839 34.7273 158.528 34.7273C157.362 34.7273 156.335 34.4621 155.449 33.9318C154.563 33.4015 153.869 32.6477 153.369 31.6705C152.877 30.6932 152.627 29.5227 152.619 28.1591V17.0455H157.46V27.2955C157.468 28.3258 157.744 29.1402 158.29 29.7386C158.835 30.3371 159.566 30.6364 160.483 30.6364C161.066 30.6364 161.612 30.5038 162.119 30.2386C162.627 29.9659 163.036 29.5644 163.347 29.0341C163.665 28.5038 163.82 27.8485 163.812 27.0682Z" fill="white"/>
<defs>
<linearGradient id="paint0_linear_5_9" x1="2.83331" y1="26.8333" x2="43.1666" y2="26.8333" gradientUnits="userSpaceOnUse">
<stop stop-color="#2AF598"/>
<stop offset="1" stop-color="#009EFD"/>
</linearGradient>
<linearGradient id="paint1_linear_5_9" x1="2.83331" y1="26.8333" x2="43.1666" y2="26.8333" gradientUnits="userSpaceOnUse">
<stop stop-color="#2AF598"/>
<stop offset="1" stop-color="#009EFD"/>
</linearGradient>
<linearGradient id="paint2_linear_5_9" x1="16.246" y1="14.8543" x2="29.754" y2="14.8543" gradientUnits="userSpaceOnUse">
<stop stop-color="#2AF598"/>
<stop offset="1" stop-color="#009EFD"/>
</linearGradient>
</defs>
</svg>
