<svg width="68" height="68" viewBox="0 0 68 68" fill="none" xmlns="http://www.w3.org/2000/svg">
<path fill-rule="evenodd" clip-rule="evenodd" d="M56.0517 7.04217C52.399 7.29408 48.1162 8.29354 44.8641 11.081C41.6453 13.84 40.7594 16.9951 40.6464 19.4815C40.589 20.7431 40.7328 21.8369 40.8904 22.6106C40.8926 22.6214 40.8948 22.6322 40.8971 22.643C41.0091 22.6549 41.128 22.6668 41.2533 22.6782C42.2661 22.7702 43.6784 22.8314 45.2685 22.709C48.4901 22.4612 52.1887 21.4829 54.8983 18.7733C57.7693 15.9023 59.2255 12.5304 59.9611 9.83317C60.2514 8.76857 60.4261 7.82096 60.5311 7.06931C59.3985 6.97823 57.8288 6.91961 56.0517 7.04217ZM62.6875 5.31253C64.6875 5.31253 64.6875 5.3133 64.6875 5.3141L64.6875 5.31997L64.6874 5.33055L64.6872 5.36101C64.6869 5.38541 64.6863 5.41796 64.6853 5.45831C64.6834 5.53901 64.6796 5.65105 64.6725 5.79178C64.6582 6.0731 64.6302 6.46998 64.5757 6.96113C64.4667 7.94188 64.2505 9.30778 63.8202 10.8856C62.962 14.0321 61.2307 18.0978 57.7267 21.6017C54.0613 25.2671 49.2599 26.4138 45.5753 26.6973C43.7122 26.8406 42.0699 26.7689 40.8912 26.6617C40.3001 26.608 39.821 26.5449 39.4835 26.4941C39.3146 26.4686 39.1808 26.4462 39.0858 26.4294C39.0383 26.421 39.0004 26.414 38.9727 26.4088L38.9387 26.4023L38.9275 26.4001L38.9234 26.3993L38.9217 26.399C38.921 26.3988 38.9203 26.3987 39.3125 24.4375C38.3894 24.7837 37.9212 24.959 37.6838 25.0476C37.6838 25.0474 37.6838 25.0478 37.6838 25.0476L39.3125 24.4375L38.9203 26.3987C38.4375 26.3021 38.0146 26.0329 37.7234 25.652C37.7238 25.6596 37.7242 25.6672 37.7245 25.6748C37.7416 26.0505 37.7451 26.4143 37.7381 26.7643C38.5749 27.0034 39.1875 27.7739 39.1875 28.6875C39.1875 31.5317 38.3866 34.7902 37.6084 37.3125H49.9375C50.9566 37.3125 51.8127 38.0788 51.9253 39.0917L49.9375 39.3125C51.9253 39.0917 51.9254 39.0925 51.9255 39.0935L51.9264 39.1016L51.9282 39.1185L51.9336 39.173C51.9381 39.2183 51.9439 39.2814 51.9506 39.3612C51.9639 39.5208 51.9804 39.7473 51.995 40.0313C52.0243 40.5985 52.0463 41.3991 52.0197 42.3563C51.9669 44.2579 51.7207 46.8406 50.9205 49.4595C50.1211 52.0757 48.7344 54.8378 46.3264 56.9521C43.8821 59.0983 40.5429 60.4375 36.125 60.4375C31.7071 60.4375 28.3679 59.0983 25.9236 56.9521C23.5156 54.8378 22.1289 52.0757 21.3295 49.4595C20.5293 46.8406 20.2831 44.2579 20.2303 42.3563C20.2037 41.3991 20.2257 40.5985 20.255 40.0313C20.2696 39.7473 20.2861 39.5208 20.2994 39.3612C20.3061 39.2814 20.3119 39.2183 20.3164 39.173L20.3219 39.1185L20.3236 39.1016L20.3243 39.0957L20.3245 39.0935C20.3246 39.0925 20.3247 39.0917 22.3125 39.3125L20.3247 39.0917C20.4373 38.0788 21.2934 37.3125 22.3125 37.3125H33.4067C33.4991 37.0367 33.5928 36.7493 33.6866 36.4525C34.0406 35.3315 34.381 34.1158 34.6479 32.9043C34.3372 32.9473 33.9445 32.9949 33.4838 33.0367C32.3051 33.1439 30.6628 33.2156 28.7997 33.0723C25.1151 32.7888 20.3137 31.6421 16.6483 27.9767C13.1443 24.4728 11.413 20.4071 10.5548 17.2606C10.1245 15.6828 9.90831 14.3169 9.79934 13.3361C9.74477 12.845 9.71684 12.4481 9.70253 12.1668C9.69538 12.0261 9.69162 11.914 9.68965 11.8333C9.68867 11.793 9.68813 11.7604 9.68784 11.736L9.68756 11.7056L9.68751 11.695L9.6875 11.6909L9.6875 11.6891C9.6875 11.6883 9.6875 11.6875 11.6875 11.6875C11.3297 9.71979 11.3304 9.71967 11.3311 9.71954L11.3327 9.71925L11.3368 9.71852L11.3482 9.71649L11.3836 9.71033C11.4129 9.70533 11.4532 9.69858 11.5041 9.69042C11.606 9.67409 11.7504 9.6521 11.9334 9.62709C12.2993 9.5771 12.8207 9.51487 13.4661 9.46183C14.7538 9.35599 16.5505 9.2854 18.5985 9.42665C22.649 9.70599 27.9287 10.8315 32.1141 14.419C34.3951 16.3742 35.805 18.5241 36.6431 20.6173C36.6289 20.1982 36.6297 19.7578 36.6505 19.2998C36.8031 15.9424 38.0422 11.6601 42.2609 8.04402C46.4463 4.45652 51.726 3.33099 55.7765 3.05165C57.8245 2.9104 59.6212 2.98099 60.9089 3.08683C61.5543 3.13987 62.0757 3.2021 62.4416 3.25209C62.6246 3.2771 62.769 3.29909 62.8709 3.31542C62.9218 3.32358 62.9621 3.33033 62.9914 3.33533L63.0268 3.34149L63.0382 3.34352L63.0423 3.34425L63.0439 3.34455C63.0446 3.34467 63.0453 3.34479 62.6875 5.31253ZM11.6875 11.6875L11.3297 9.71979C10.3787 9.8927 9.6875 10.721 9.6875 11.6875H11.6875ZM13.8439 13.4443C13.9489 14.196 14.1236 15.1436 14.4139 16.2082C15.1495 18.9054 16.6057 22.2773 19.4767 25.1483C22.1863 27.8579 25.8849 28.8362 29.1065 29.084C30.6966 29.2064 32.1089 29.1452 33.1217 29.0532C33.247 29.0418 33.3659 29.0299 33.4779 29.018C33.4802 29.0072 33.4824 28.9964 33.4846 28.9856C33.6422 28.2119 33.786 27.1181 33.7286 25.8565C33.6156 23.3701 32.7297 20.215 29.5109 17.456C26.2588 14.6685 21.976 13.6691 18.3233 13.4172C16.5462 13.2946 14.9765 13.3532 13.8439 13.4443ZM32.0034 41.3125H24.219C24.217 41.5974 24.2194 41.9099 24.2287 42.2453C24.2755 43.9296 24.4942 46.1282 25.1549 48.2906C25.8164 50.4556 26.8868 52.4748 28.5628 53.9464C30.2025 55.3861 32.5741 56.4375 36.125 56.4375C39.6759 56.4375 42.0475 55.3861 43.6872 53.9464C45.3632 52.4748 46.4336 50.4556 47.0951 48.2906C47.7558 46.1282 47.9745 43.9296 48.0213 42.2453C48.0306 41.9099 48.033 41.5974 48.031 41.3125H36.2088C36.1222 41.5332 36.0478 41.7183 35.9889 41.8627C35.9429 41.9756 35.9063 42.0638 35.8807 42.125L35.8507 42.1963L35.8422 42.2162L35.8397 42.2221L35.8388 42.2241C35.8387 42.2244 35.8383 42.2254 34 41.4375L35.8383 42.2254C35.4032 43.2406 34.2274 43.7109 33.2122 43.2758C32.4135 42.9335 31.952 42.1328 32.0034 41.3125ZM62.6875 5.31253L63.0453 3.34479C63.9963 3.5177 64.6875 4.34596 64.6875 5.31253H62.6875ZM12.0425 13.6558C12.0423 13.6558 12.0424 13.6558 12.0425 13.6558V13.6558Z" fill="url(#paint0_linear_23_180)"/>
<defs>
<linearGradient id="paint0_linear_23_180" x1="9.6875" y1="31.705" x2="64.6875" y2="31.705" gradientUnits="userSpaceOnUse">
<stop stop-color="#2AF598"/>
<stop offset="1" stop-color="#009EFD"/>
</linearGradient>
</defs>
</svg>
