<svg width="50" height="50" viewBox="0 0 50 50" fill="none" xmlns="http://www.w3.org/2000/svg">
<circle cx="25" cy="25" r="25" fill="url(#paint0_linear_2_20)"/>
<path fill-rule="evenodd" clip-rule="evenodd" d="M20.5617 14.4418C21.7371 13.9549 22.9968 13.7043 24.269 13.7043C25.5412 13.7043 26.8009 13.9549 27.9763 14.4418C29.1516 14.9286 30.2196 15.6422 31.1191 16.5418C32.0187 17.4413 32.7323 18.5093 33.2191 19.6846C33.706 20.86 33.9566 22.1197 33.9566 23.3919C33.9566 24.6641 33.706 25.9238 33.2191 27.0992C32.9249 27.8094 32.548 28.4804 32.0972 29.0988L35.856 32.8576C36.4418 33.4433 36.4418 34.3931 35.856 34.9789C35.2702 35.5647 34.3204 35.5647 33.7347 34.9789L29.9759 31.2201C28.3288 32.4209 26.3329 33.0794 24.269 33.0794C21.6997 33.0794 19.2356 32.0588 17.4189 30.242C15.6021 28.4253 14.5815 25.9612 14.5815 23.3919C14.5815 20.8226 15.6021 18.3585 17.4189 16.5418C18.3184 15.6422 19.3864 14.9286 20.5617 14.4418ZM28.9978 28.1207C29.6188 27.4997 30.1114 26.7625 30.4475 25.9511C30.7836 25.1397 30.9566 24.2701 30.9566 23.3919C30.9566 22.5137 30.7836 21.6441 30.4475 20.8327C30.1114 20.0213 29.6188 19.2841 28.9978 18.6631C28.3768 18.0421 27.6396 17.5495 26.8282 17.2134C26.0168 16.8773 25.1472 16.7043 24.269 16.7043C23.3908 16.7043 22.5212 16.8773 21.7098 17.2134C20.8984 17.5495 20.1612 18.0421 19.5402 18.6631C18.286 19.9172 17.5815 21.6182 17.5815 23.3919C17.5815 25.1655 18.286 26.8666 19.5402 28.1207C20.7943 29.3749 22.4954 30.0794 24.269 30.0794C26.0427 30.0794 27.7437 29.3749 28.9978 28.1207Z" fill="white"/>
<defs>
<linearGradient id="paint0_linear_2_20" x1="0" y1="25" x2="50" y2="25" gradientUnits="userSpaceOnUse">
<stop stop-color="#2AF598"/>
<stop offset="1" stop-color="#009EFD"/>
</linearGradient>
</defs>
</svg>
