<svg width="120" height="25" viewBox="0 0 120 25" fill="none" xmlns="http://www.w3.org/2000/svg">
<path d="M21.2836 8.55056L15.3328 7.68571L12.6727 2.29275C12.6 2.14509 12.4805 2.02556 12.3328 1.9529C11.9625 1.77009 11.5125 1.92243 11.3273 2.29275L8.66718 7.68571L2.7164 8.55056C2.55234 8.574 2.40234 8.65134 2.2875 8.76853C2.14866 8.91123 2.07215 9.10322 2.07479 9.3023C2.07743 9.50138 2.15899 9.69127 2.30156 9.83025L6.60703 14.0279L5.58984 19.9552C5.56599 20.0931 5.58125 20.2349 5.63389 20.3646C5.68652 20.4942 5.77444 20.6066 5.88766 20.6888C6.00088 20.771 6.13487 20.8199 6.27445 20.8298C6.41403 20.8398 6.5536 20.8104 6.67734 20.7451L12 17.9467L17.3227 20.7451C17.468 20.8224 17.6367 20.8482 17.7984 20.8201C18.2062 20.7498 18.4805 20.3631 18.4102 19.9552L17.393 14.0279L21.6984 9.83025C21.8156 9.7154 21.893 9.5654 21.9164 9.40134C21.9797 8.99118 21.6937 8.6115 21.2836 8.55056Z" fill="#F2C94C"/>
<path d="M45.2836 8.55056L39.3328 7.68571L36.6727 2.29275C36.6 2.14509 36.4805 2.02556 36.3328 1.9529C35.9625 1.77009 35.5125 1.92243 35.3273 2.29275L32.6672 7.68571L26.7164 8.55056C26.5523 8.574 26.4023 8.65134 26.2875 8.76853C26.1487 8.91123 26.0722 9.10322 26.0748 9.3023C26.0774 9.50138 26.159 9.69127 26.3016 9.83025L30.607 14.0279L29.5898 19.9552C29.566 20.0931 29.5812 20.2349 29.6339 20.3646C29.6865 20.4942 29.7744 20.6066 29.8877 20.6888C30.0009 20.771 30.1349 20.8199 30.2745 20.8298C30.414 20.8398 30.5536 20.8104 30.6773 20.7451L36 17.9467L41.3227 20.7451C41.468 20.8224 41.6367 20.8482 41.7984 20.8201C42.2062 20.7498 42.4805 20.3631 42.4102 19.9552L41.393 14.0279L45.6984 9.83025C45.8156 9.7154 45.893 9.5654 45.9164 9.40134C45.9797 8.99118 45.6937 8.6115 45.2836 8.55056Z" fill="#F2C94C"/>
<path d="M69.2836 8.55056L63.3328 7.68571L60.6727 2.29275C60.6 2.14509 60.4805 2.02556 60.3328 1.9529C59.9625 1.77009 59.5125 1.92243 59.3273 2.29275L56.6672 7.68571L50.7164 8.55056C50.5523 8.574 50.4023 8.65134 50.2875 8.76853C50.1487 8.91123 50.0722 9.10322 50.0748 9.3023C50.0774 9.50138 50.159 9.69127 50.3016 9.83025L54.607 14.0279L53.5898 19.9552C53.566 20.0931 53.5812 20.2349 53.6339 20.3646C53.6865 20.4942 53.7744 20.6066 53.8877 20.6888C54.0009 20.771 54.1349 20.8199 54.2745 20.8298C54.414 20.8398 54.5536 20.8104 54.6773 20.7451L60 17.9467L65.3227 20.7451C65.468 20.8224 65.6367 20.8482 65.7984 20.8201C66.2062 20.7498 66.4805 20.3631 66.4102 19.9552L65.393 14.0279L69.6984 9.83025C69.8156 9.7154 69.893 9.5654 69.9164 9.40134C69.9797 8.99118 69.6937 8.6115 69.2836 8.55056Z" fill="#F2C94C"/>
<path d="M93.2836 8.55056L87.3328 7.68571L84.6727 2.29275C84.6 2.14509 84.4805 2.02556 84.3328 1.9529C83.9625 1.77009 83.5125 1.92243 83.3274 2.29275L80.6672 7.68571L74.7164 8.55056C74.5524 8.574 74.4024 8.65134 74.2875 8.76853C74.1487 8.91123 74.0722 9.10322 74.0748 9.3023C74.0774 9.50138 74.159 9.69127 74.3016 9.83025L78.607 14.0279L77.5899 19.9552C77.566 20.0931 77.5813 20.2349 77.6339 20.3646C77.6865 20.4942 77.7745 20.6066 77.8877 20.6888C78.0009 20.771 78.1349 20.8199 78.2745 20.8298C78.414 20.8398 78.5536 20.8104 78.6774 20.7451L84 17.9467L89.3227 20.7451C89.468 20.8224 89.6367 20.8482 89.7985 20.8201C90.2063 20.7498 90.4805 20.3631 90.4102 19.9552L89.393 14.0279L93.6985 9.83025C93.8156 9.7154 93.893 9.5654 93.9164 9.40134C93.9797 8.99118 93.6938 8.6115 93.2836 8.55056Z" fill="#F2C94C"/>
<path d="M117.284 8.55056L111.333 7.68571L108.673 2.29275C108.6 2.14509 108.48 2.02556 108.333 1.9529C107.963 1.77009 107.513 1.92243 107.327 2.29275L104.667 7.68571L98.7164 8.55056C98.5524 8.574 98.4024 8.65134 98.2875 8.76853C98.1487 8.91123 98.0722 9.10322 98.0748 9.3023C98.0774 9.50138 98.159 9.69127 98.3016 9.83025L102.607 14.0279L101.59 19.9552C101.566 20.0931 101.581 20.2349 101.634 20.3646C101.687 20.4942 101.774 20.6066 101.888 20.6888C102.001 20.771 102.135 20.8199 102.274 20.8298C102.414 20.8398 102.554 20.8104 102.677 20.7451L108 17.9467L113.323 20.7451C113.468 20.8224 113.637 20.8482 113.798 20.8201C114.206 20.7498 114.48 20.3631 114.41 19.9552L113.393 14.0279L117.698 9.83025C117.816 9.7154 117.893 9.5654 117.916 9.40134C117.98 8.99118 117.694 8.6115 117.284 8.55056Z" fill="#F2C94C"/>
</svg>
